<?xml version="1.0" encoding="UTF-8" standalone="no"?>
<!DOCTYPE svg PUBLIC "-//W3C//DTD SVG 1.1//EN" "http://www.w3.org/Graphics/SVG/1.1/DTD/svg11.dtd">
<svg width="100%" height="100%" viewBox="0 0 149 150" version="1.1" xmlns="http://www.w3.org/2000/svg" xmlns:xlink="http://www.w3.org/1999/xlink" xml:space="preserve" xmlns:serif="http://www.serif.com/" style="fill-rule:evenodd;clip-rule:evenodd;stroke-linejoin:round;stroke-miterlimit:2;">
    <g id="Logo" transform="matrix(1,0,0,1,-410,-390.437)">
        <g id="S" transform="matrix(1,0,0,1,196.871,-35)">
            <g id="Blue-Block" serif:id="Blue Block" transform="matrix(1.04074,0,0,1.32614,22.1278,-167.992)">
                <path d="M326.498,553.45C326.498,557.182 322.642,560.209 317.886,560.209C303.87,560.209 277.672,560.209 277.672,560.209C273.438,560.209 270,557.511 270,554.188L270,506.021C270,502.698 273.438,500 277.672,500L317.85,500C320.144,500 322.343,500.715 323.965,501.988C325.587,503.26 326.498,504.987 326.498,506.787L326.498,553.45Z" style="fill:rgb(0,143,255);"/>
            </g>
            <g id="S-White" serif:id="S White" transform="matrix(0.1,0,0,0.1,282.5,485)">
                <g id="White-Group" serif:id="White Group">
                    <path id="S-White1" serif:id="S White" d="M300,250C300,222.404 322.404,200 350,200L650,200C677.596,200 700,222.404 700,250C700,277.596 677.596,300 650,300L425,300C418.37,300 412.011,302.634 407.322,307.322C402.634,312.011 400,318.369 400,325C400,352.745 400,397.255 400,425C400,431.631 402.634,437.989 407.322,442.678C412.011,447.366 418.37,450 425,450C488.316,450 650,450 650,450C677.596,450 700,472.404 700,500L700,750C700,777.596 677.596,800 650,800L350,800C322.404,800 300,777.596 300,750C300,722.404 322.404,700 350,700L575,700C581.63,700 587.989,697.366 592.678,692.678C597.366,687.989 600,681.631 600,675C600,647.255 600,602.745 600,575C600,568.369 597.366,562.011 592.678,557.322C587.989,552.634 581.63,550 575,550C511.684,550 350,550 350,550C322.404,550 300,527.596 300,500L300,250Z" style="fill:white;"/>
                </g>
            </g>
        </g>
        <g id="Big-G" serif:id="Big G" transform="matrix(1.06722,0,0,1.00052,36.3909,-34.8214)">
            <path d="M425.039,500.155L425.039,565.451C425.039,568.027 424.004,570.479 422.195,572.187C420.387,573.894 417.979,574.693 415.582,574.38C378.668,569.715 350.078,538.17 350.078,500C350.078,460.283 381.032,427.74 420.111,425.198C421.389,425.127 422.638,425.619 423.566,426.559C424.494,427.499 425.02,428.804 425.02,430.169C425.039,430.183 425.039,430.197 425.039,430.21C425.039,432.867 423.09,435.059 420.603,435.201C386.467,437.443 359.448,465.621 359.448,500C359.448,531.162 381.647,557.23 411.223,563.52C412.316,563.742 413.444,563.432 414.301,562.675C415.158,561.919 415.654,560.794 415.654,559.608C415.669,547.706 415.669,516.68 415.669,507.651C415.669,506.271 414.62,505.152 413.326,505.152C407.42,505.152 392.39,505.152 392.39,505.152C389.804,505.152 387.705,502.913 387.705,500.155C387.705,497.397 389.804,495.158 392.39,495.158L420.354,495.158C422.939,495.158 425.039,497.397 425.039,500.155Z" style="fill:rgb(22,22,22);"/>
        </g>
    </g>
</svg>
