<?xml version="1.0" encoding="UTF-8" standalone="no"?>
<!DOCTYPE svg PUBLIC "-//W3C//DTD SVG 1.1//EN" "http://www.w3.org/Graphics/SVG/1.1/DTD/svg11.dtd">
<svg width="100%" height="100%" viewBox="0 0 569 150" version="1.1" xmlns="http://www.w3.org/2000/svg" xmlns:xlink="http://www.w3.org/1999/xlink" xml:space="preserve" xmlns:serif="http://www.serif.com/" style="fill-rule:evenodd;clip-rule:evenodd;stroke-linejoin:round;stroke-miterlimit:2;">
    <g id="Logo" transform="matrix(1,0,0,1,-606.914,-350.039)">
        <g id="Lettering" transform="matrix(1,0,0,1,436.242,-39.9612)">
            <g id="Top-Line" serif:id="Top Line" transform="matrix(1,0,0,1,-10,-50)">
                <g id="A" transform="matrix(0.100144,0,0,0.100144,260.412,420.019)">
                    <path d="M195.595,249.928C195.595,222.372 217.967,200 245.523,200L545.092,200C572.648,200 595.021,222.372 595.021,249.928L595.021,749.21C595.021,776.766 572.648,799.139 545.092,799.139C517.536,799.139 495.164,776.766 495.164,749.21L495.164,524.534C495.164,517.913 492.534,511.563 487.852,506.881C483.171,502.2 476.821,499.569 470.2,499.569C431.83,499.569 358.785,499.569 320.415,499.569C313.795,499.569 307.445,502.2 302.763,506.881C298.081,511.563 295.451,517.913 295.451,524.534C295.451,587.759 295.451,749.21 295.451,749.21C295.451,776.766 273.079,799.139 245.523,799.139C217.967,799.139 195.595,776.766 195.595,749.21L195.595,249.928ZM495.164,324.821C495.164,311.033 483.987,299.857 470.2,299.857C431.83,299.857 358.785,299.857 320.415,299.857C306.628,299.857 295.451,311.033 295.451,324.821C295.451,340.069 295.451,359.501 295.451,374.749C295.451,388.536 306.628,399.713 320.415,399.713C358.785,399.713 431.83,399.713 470.2,399.713C483.987,399.713 495.164,388.536 495.164,374.749C495.164,359.501 495.164,340.069 495.164,324.821Z" style="fill:rgb(22,22,22);"/>
                </g>
                <g id="A1" serif:id="A" transform="matrix(0.100144,0,0,0.100144,440.412,419.971)">
                    <path d="M195.595,249.928C195.595,222.372 217.967,200 245.523,200L545.092,200C572.648,200 595.021,222.372 595.021,249.928L595.021,749.21C595.021,776.766 572.648,799.139 545.092,799.139C517.536,799.139 495.164,776.766 495.164,749.21L495.164,524.534C495.164,517.913 492.534,511.563 487.852,506.881C483.171,502.2 476.821,499.569 470.2,499.569C431.83,499.569 358.785,499.569 320.415,499.569C313.795,499.569 307.445,502.2 302.763,506.881C298.081,511.563 295.451,517.913 295.451,524.534C295.451,587.759 295.451,749.21 295.451,749.21C295.451,776.766 273.079,799.139 245.523,799.139C217.967,799.139 195.595,776.766 195.595,749.21L195.595,249.928ZM495.164,324.821C495.164,311.033 483.987,299.857 470.2,299.857C431.83,299.857 358.785,299.857 320.415,299.857C306.628,299.857 295.451,311.033 295.451,324.821C295.451,340.069 295.451,359.501 295.451,374.749C295.451,388.536 306.628,399.713 320.415,399.713C358.785,399.713 431.83,399.713 470.2,399.713C483.987,399.713 495.164,388.536 495.164,374.749C495.164,359.501 495.164,340.069 495.164,324.821Z" style="fill:rgb(22,22,22);"/>
                </g>
                <g id="L" transform="matrix(0.100938,0,0,0.100166,289.471,419.947)">
                    <path d="M500,749.722L500,250.153C500,222.581 522.214,200.196 549.575,200.196C576.936,200.196 599.15,222.581 599.15,250.153L599.15,674.807C599.15,681.426 601.759,687.774 606.404,692.455C611.049,697.136 617.349,699.765 623.917,699.765C686.681,699.765 847.024,699.765 847.024,699.765C874.385,699.765 896.598,722.15 896.598,749.722C896.598,777.294 874.385,799.679 847.024,799.679L549.575,799.679C522.214,799.679 500,777.294 500,749.722Z" style="fill:rgb(22,22,22);"/>
                </g>
                <g id="L1" serif:id="L" transform="matrix(0.100938,0,0,0.100166,349.531,419.947)">
                    <path d="M500,749.722L500,250.153C500,222.581 522.214,200.196 549.575,200.196C576.936,200.196 599.15,222.581 599.15,250.153L599.15,674.807C599.15,681.426 601.759,687.774 606.404,692.455C611.049,697.136 617.349,699.765 623.917,699.765C686.681,699.765 847.024,699.765 847.024,699.765C874.385,699.765 896.598,722.15 896.598,749.722C896.598,777.294 874.385,799.679 847.024,799.679L549.575,799.679C522.214,799.679 500,777.294 500,749.722Z" style="fill:rgb(22,22,22);"/>
                </g>
                <g id="G" transform="matrix(0.100194,0,0,0.100519,489.903,419.747)">
                    <path d="M300.388,251.23C300.388,223.776 322.748,201.488 350.291,201.488L649.709,201.488C677.252,201.488 699.612,223.776 699.612,251.23C699.612,278.683 677.252,300.971 649.709,300.971L425.146,300.971C418.528,300.971 412.181,303.591 407.502,308.256C402.823,312.92 400.194,319.246 400.194,325.842C400.194,397.29 400.194,602.586 400.194,674.033C400.194,687.769 411.365,698.904 425.145,698.904C463.496,698.904 536.504,698.904 574.855,698.904C588.635,698.904 599.806,687.769 599.806,674.033C599.806,658.842 599.806,639.483 599.806,624.291C599.806,610.556 588.635,599.421 574.855,599.421C562.379,599.421 549.903,599.421 549.903,599.421C522.361,599.421 500,577.132 500,549.679C500,522.226 522.361,499.938 549.903,499.938L649.709,499.938C677.252,499.938 699.612,522.226 699.612,549.679L699.612,748.646C699.612,776.099 677.252,798.387 649.709,798.387L350.291,798.387C322.748,798.387 300.388,776.099 300.388,748.646L300.388,251.23Z" style="fill:rgb(22,22,22);"/>
                </g>
                <g id="T" transform="matrix(0.1,0,0,0.1,555,420)">
                    <path d="M400,325C400,311.193 388.807,300 375,300C345.38,300 300,300 300,300C272.404,300 250,277.596 250,250C250,222.404 272.404,200 300,200L600,200C627.596,200 650,222.404 650,250C650,277.596 627.596,300 600,300L525,300C511.193,300 500,311.193 500,325C500,419.558 500,750 500,750C500,777.596 477.596,800 450,800C422.404,800 400,777.596 400,750L400,325Z" style="fill:rgb(22,22,22);"/>
                </g>
                <g id="I" transform="matrix(0.1,0,0,0.1,615,420)">
                    <path d="M400,325C400,311.193 388.807,300 375,300C345.38,300 300,300 300,300C272.404,300 250,277.596 250,250C250,222.404 272.404,200 300,200L600,200C627.596,200 650,222.404 650,250C650,277.596 627.596,300 600,300L525,300C511.193,300 500,311.193 500,325C500,396.819 500,603.181 500,675C500,688.807 511.193,700 525,700C554.62,700 600,700 600,700C627.596,700 650,722.404 650,750C650,777.596 627.596,800 600,800L300,800C272.404,800 250,777.596 250,750C250,722.404 272.404,700 300,700L375,700C388.807,700 400,688.807 400,675C400,603.181 400,396.819 400,325Z" style="fill:rgb(22,22,22);"/>
                </g>
                <g id="C" transform="matrix(0.1,0,0,0.1,660,420)">
                    <path d="M400,250C400,222.404 422.404,200 450,200L750,200C777.596,200 800,222.404 800,250C800,277.596 777.596,300 750,300L525,300C518.37,300 512.011,302.634 507.322,307.322C502.634,312.011 500,318.37 500,325C500,396.819 500,603.181 500,675C500,681.63 502.634,687.989 507.322,692.678C512.011,697.366 518.37,700 525,700C588.316,700 750,700 750,700C777.596,700 800,722.404 800,750C800,777.596 777.596,800 750,800L450,800C422.404,800 400,777.596 400,750L400,250Z" style="fill:rgb(22,22,22);"/>
                </g>
            </g>
            <g id="Bottom-Line" serif:id="Bottom Line">
                <g id="Blue-Block" serif:id="Blue Block" transform="matrix(1.04074,0,0,1.32614,-20.3722,-202.992)">
                    <path d="M730,506.021L730,554.188C730,557.511 726.562,560.209 722.328,560.209L277.672,560.209C273.438,560.209 270,557.511 270,554.188L270,506.021C270,502.698 273.438,500 277.672,500L722.328,500C726.562,500 730,502.698 730,506.021Z" style="fill:rgb(0,143,255);"/>
                </g>
                <g id="White-Group" serif:id="White Group">
                    <g id="A-White" serif:id="A White" transform="matrix(0.100144,0,0,0.100144,550.412,449.971)">
                        <path d="M195.595,249.928C195.595,222.372 217.967,200 245.523,200L545.092,200C572.648,200 595.021,222.372 595.021,249.928L595.021,749.21C595.021,776.766 572.648,799.139 545.092,799.139C517.536,799.139 495.164,776.766 495.164,749.21L495.164,524.534C495.164,517.913 492.534,511.563 487.852,506.881C483.171,502.2 476.821,499.569 470.2,499.569C431.83,499.569 358.785,499.569 320.415,499.569C313.795,499.569 307.445,502.2 302.763,506.881C298.081,511.563 295.451,517.913 295.451,524.534C295.451,587.759 295.451,749.21 295.451,749.21C295.451,776.766 273.079,799.139 245.523,799.139C217.967,799.139 195.595,776.766 195.595,749.21L195.595,249.928ZM495.164,324.821C495.164,311.033 483.987,299.857 470.2,299.857C431.83,299.857 358.785,299.857 320.415,299.857C306.628,299.857 295.451,311.033 295.451,324.821C295.451,340.069 295.451,359.501 295.451,374.749C295.451,388.536 306.628,399.713 320.415,399.713C358.785,399.713 431.83,399.713 470.2,399.713C483.987,399.713 495.164,388.536 495.164,374.749C495.164,359.501 495.164,340.069 495.164,324.821Z" style="fill:white;"/>
                    </g>
                    <g id="S-White" serif:id="S White" transform="matrix(0.1,0,0,0.1,240,450)">
                        <path d="M300,250C300,222.404 322.404,200 350,200L650,200C677.596,200 700,222.404 700,250C700,277.596 677.596,300 650,300L425,300C418.37,300 412.011,302.634 407.322,307.322C402.634,312.011 400,318.369 400,325C400,352.745 400,397.255 400,425C400,431.631 402.634,437.989 407.322,442.678C412.011,447.366 418.37,450 425,450C488.316,450 650,450 650,450C677.596,450 700,472.404 700,500L700,750C700,777.596 677.596,800 650,800L350,800C322.404,800 300,777.596 300,750C300,722.404 322.404,700 350,700L575,700C581.63,700 587.989,697.366 592.678,692.678C597.366,687.989 600,681.631 600,675C600,647.255 600,602.745 600,575C600,568.369 597.366,562.011 592.678,557.322C587.989,552.634 581.63,550 575,550C511.684,550 350,550 350,550C322.404,550 300,527.596 300,500L300,250Z" style="fill:white;"/>
                    </g>
                    <g id="T-White" serif:id="T White" transform="matrix(0.1,0,0,0.1,424.973,450)">
                        <path d="M400,325C400,311.193 388.807,300 375,300C345.38,300 300,300 300,300C272.404,300 250,277.596 250,250C250,222.404 272.404,200 300,200L600,200C627.596,200 650,222.404 650,250C650,277.596 627.596,300 600,300L525,300C511.193,300 500,311.193 500,325C500,419.558 500,750 500,750C500,777.596 477.596,800 450,800C422.404,800 400,777.596 400,750L400,325Z" style="fill:white;"/>
                    </g>
                    <g id="O-White" serif:id="O White" transform="matrix(0.1,0,0,0.0999919,299.94,450.002)">
                        <path d="M300,250.049C300,222.453 322.404,200.049 350,200.049L647.778,200.049C648.515,200.016 649.255,200 650,200C677.596,200 700,222.404 700,250L700,250.049L700,750.049C700,777.644 677.596,800.049 650,800.049L350,800.049C322.404,800.049 300,777.644 300,750.049L300,250.049ZM600,325.051C600,318.42 597.366,312.06 592.678,307.372C587.989,302.683 581.631,300.049 575,300.049C536.575,300.049 463.425,300.049 425,300.049C418.369,300.049 412.011,302.683 407.322,307.372C402.634,312.06 400,318.42 400,325.051C400,396.871 400,603.226 400,675.046C400,681.677 402.634,688.037 407.322,692.726C412.011,697.414 418.369,700.049 425,700.049C463.425,700.049 536.575,700.049 575,700.049C581.631,700.049 587.989,697.414 592.678,692.726C597.366,688.037 600,681.677 600,675.046C600,603.226 600,396.871 600,325.051Z" style="fill:white;"/>
                    </g>
                    <g id="F-White" serif:id="F White" transform="matrix(0.1,0,0,0.1,359.965,450)">
                        <path d="M300,250C300,222.404 322.404,200 350,200L650,200C677.596,200 700,222.404 700,250C700,277.596 677.596,300 650,300L425,300C418.37,300 412.011,302.634 407.322,307.322C402.634,312.011 400,318.37 400,325C400,340.27 400,359.73 400,375C400,381.63 402.634,387.989 407.322,392.678C412.011,397.366 418.37,400 425,400C488.316,400 650,400 650,400C677.596,400 700,422.404 700,450C700,477.596 677.596,500 650,500L425,500C418.37,500 412.011,502.634 407.322,507.322C402.634,512.011 400,518.37 400,525L400,750C400,777.596 377.596,800 350,800C322.404,800 300,777.596 300,750L300,250Z" style="fill:white;"/>
                    </g>
                    <g id="W-White" serif:id="W White" transform="matrix(0.0985904,0,0,0.0991292,480.508,450.388)">
                        <path d="M299.136,752.675L299.136,248.283C299.136,220.445 321.86,197.844 349.851,197.844C377.841,197.844 400.566,220.445 400.566,248.283L400.566,677.016C400.566,683.705 403.237,690.12 407.993,694.849C412.748,699.579 419.198,702.236 425.923,702.236L425.923,702.236C439.927,702.236 451.28,690.945 451.28,677.016C451.28,633.971 451.28,550.918 451.28,550.918C451.28,523.08 474.005,500.479 501.995,500.479C529.986,500.479 552.71,523.08 552.71,550.918L552.71,677.016C552.71,690.945 564.063,702.236 578.068,702.236C578.068,702.236 578.068,702.236 578.068,702.236C592.072,702.236 603.425,690.945 603.425,677.016L603.425,248.283C603.425,220.445 626.15,197.844 654.14,197.844C682.13,197.844 704.855,220.445 704.855,248.283L704.855,752.675C704.855,780.513 682.13,803.114 654.14,803.114L349.851,803.114C321.86,803.114 299.136,780.513 299.136,752.675Z" style="fill:white;"/>
                    </g>
                    <g id="R-White" serif:id="R White" transform="matrix(0.1,0,0,0.1,600,450)">
                        <path d="M300,250C300,222.404 322.404,200 350,200L650,200C677.596,200 700,222.404 700,250L700,450C700,477.596 677.596,500 650,500L531.066,500C520.955,500 511.839,506.091 507.969,515.433C504.1,524.775 506.238,535.528 513.388,542.678C575.988,605.277 685.355,714.645 685.355,714.645C704.868,734.158 704.868,765.842 685.355,785.355C665.842,804.868 634.158,804.868 614.645,785.355C614.645,785.355 505.277,675.988 442.678,613.388C435.528,606.238 424.775,604.1 415.433,607.969C406.091,611.839 400,620.955 400,631.066C400,683.129 400,750 400,750C400,777.596 377.596,800 350,800C322.404,800 300,777.596 300,750L300,250ZM600,325C600,311.193 588.807,300 575,300C536.575,300 463.425,300 425,300C411.193,300 400,311.193 400,325C400,340.27 400,359.73 400,375C400,388.807 411.193,400 425,400C463.425,400 536.575,400 575,400C588.807,400 600,388.807 600,375C600,359.73 600,340.27 600,325Z" style="fill:white;"/>
                    </g>
                    <g id="E-White" serif:id="E White" transform="matrix(0.1,0,0,0.1,660,450)">
                        <path d="M300,250C300,222.404 322.404,200 350,200L650,200C677.596,200 700,222.404 700,250C700,277.596 677.596,300 650,300L425,300C418.37,300 412.011,302.634 407.322,307.322C402.634,312.011 400,318.369 400,325C400,352.745 400,397.255 400,425C400,431.631 402.634,437.989 407.322,442.678C412.011,447.366 418.37,450 425,450C488.316,450 650,450 650,450C677.596,450 700,472.404 700,500C700,527.596 677.596,550 650,550L425,550C418.37,550 412.011,552.634 407.322,557.322C402.634,562.011 400,568.369 400,575C400,602.745 400,647.255 400,675C400,681.631 402.634,687.989 407.322,692.678C412.011,697.366 418.37,700 425,700C488.316,700 650,700 650,700C677.596,700 700,722.404 700,750C700,777.596 677.596,800 650,800L350,800C322.404,800 300,777.596 300,750L300,250Z" style="fill:white;"/>
                    </g>
                </g>
            </g>
        </g>
        <g id="Big-G" serif:id="Big G" transform="matrix(1.06722,0,0,1.00052,233.262,-75.2973)">
            <path d="M425.039,500.155L425.039,565.451C425.039,568.027 424.004,570.479 422.195,572.187C420.387,573.894 417.979,574.693 415.582,574.38C378.668,569.715 350.078,538.17 350.078,500C350.078,460.283 381.032,427.74 420.111,425.198C421.389,425.127 422.638,425.619 423.566,426.559C424.494,427.499 425.02,428.804 425.02,430.169C425.039,430.183 425.039,430.197 425.039,430.21C425.039,432.867 423.09,435.059 420.603,435.201C386.467,437.443 359.448,465.621 359.448,500C359.448,531.162 381.647,557.23 411.223,563.52C412.316,563.742 413.444,563.432 414.301,562.675C415.158,561.919 415.654,560.794 415.654,559.608C415.669,547.706 415.669,516.68 415.669,507.651C415.669,506.271 414.62,505.152 413.326,505.152C407.42,505.152 392.39,505.152 392.39,505.152C389.804,505.152 387.705,502.913 387.705,500.155C387.705,497.397 389.804,495.158 392.39,495.158L420.354,495.158C422.939,495.158 425.039,497.397 425.039,500.155Z" style="fill:rgb(22,22,22);"/>
        </g>
    </g>
</svg>
