<?xml version="1.0" encoding="UTF-8" standalone="no"?>
<!DOCTYPE svg PUBLIC "-//W3C//DTD SVG 1.1//EN" "http://www.w3.org/Graphics/SVG/1.1/DTD/svg11.dtd">
<svg width="100%" height="100%" viewBox="0 0 650 400" version="1.1" xmlns="http://www.w3.org/2000/svg" xmlns:xlink="http://www.w3.org/1999/xlink" xml:space="preserve" xmlns:serif="http://www.serif.com/" style="fill-rule:evenodd;clip-rule:evenodd;stroke-linecap:round;stroke-linejoin:round;stroke-miterlimit:1.5;">
    <g id="Trapezium" transform="matrix(1.00519,0,0,0.86,-177.597,-317.959)">
        <path d="M793.674,608.837C794.579,610.247 794.724,612.132 794.05,613.708C793.376,615.284 791.998,616.279 790.491,616.279C724.947,616.279 275.053,616.279 209.509,616.279C208.002,616.279 206.624,615.284 205.95,613.708C205.276,612.132 205.421,610.247 206.326,608.837C229.424,572.84 329.21,417.329 347.791,388.372C349.669,385.444 352.618,383.721 355.749,383.721C391.471,383.721 608.529,383.721 644.251,383.721C647.382,383.721 650.331,385.444 652.209,388.372C670.79,417.329 770.576,572.84 793.674,608.837Z" style="fill:rgb(0,124,255);"/>
        <clipPath id="_clip1">
            <path d="M793.674,608.837C794.579,610.247 794.724,612.132 794.05,613.708C793.376,615.284 791.998,616.279 790.491,616.279C724.947,616.279 275.053,616.279 209.509,616.279C208.002,616.279 206.624,615.284 205.95,613.708C205.276,612.132 205.421,610.247 206.326,608.837C229.424,572.84 329.21,417.329 347.791,388.372C349.669,385.444 352.618,383.721 355.749,383.721C391.471,383.721 608.529,383.721 644.251,383.721C647.382,383.721 650.331,385.444 652.209,388.372C670.79,417.329 770.576,572.84 793.674,608.837Z"/>
        </clipPath>
        <g clip-path="url(#_clip1)">
            <g transform="matrix(0.732426,-0.49426,0.474421,0.960454,-196.505,264.825)">
                <rect x="149.806" y="371.723" width="350.194" height="409.991" style="fill:url(#_Linear2);"/>
            </g>
        </g>
        <path d="M793.674,608.837C794.579,610.247 794.724,612.132 794.05,613.708C793.376,615.284 791.998,616.279 790.491,616.279C724.947,616.279 275.053,616.279 209.509,616.279C208.002,616.279 206.624,615.284 205.95,613.708C205.276,612.132 205.421,610.247 206.326,608.837C229.424,572.84 329.21,417.329 347.791,388.372C349.669,385.444 352.618,383.721 355.749,383.721C391.471,383.721 608.529,383.721 644.251,383.721C647.382,383.721 650.331,385.444 652.209,388.372C670.79,417.329 770.576,572.84 793.674,608.837Z" style="fill:none;stroke:black;stroke-width:4.45px;"/>
    </g>
    <g id="Lines" transform="matrix(1,0,0,1,-175,-387.959)">
        <g transform="matrix(1,0,0,1.04256,0,-26.2716)">
            <path d="M795,619.886C797.761,619.886 800,622.033 800,624.682C800,627.612 800,631.345 800,634.274C800,636.923 797.761,639.07 795,639.07C740.592,639.07 259.408,639.07 205,639.07C202.239,639.07 200,636.923 200,634.274C200,631.345 200,627.612 200,624.682C200,622.033 202.239,619.886 205,619.886C259.408,619.886 740.592,619.886 795,619.886Z" style="fill:rgb(0,124,255);"/>
            <clipPath id="_clip3">
                <path d="M795,619.886C797.761,619.886 800,622.033 800,624.682C800,627.612 800,631.345 800,634.274C800,636.923 797.761,639.07 795,639.07C740.592,639.07 259.408,639.07 205,639.07C202.239,639.07 200,636.923 200,634.274C200,631.345 200,627.612 200,624.682C200,622.033 202.239,619.886 205,619.886C259.408,619.886 740.592,619.886 795,619.886Z"/>
            </clipPath>
            <g clip-path="url(#_clip3)">
                <g transform="matrix(0.736231,-0.407709,0.476886,0.792268,-200.124,310.792)">
                    <rect x="149.806" y="371.723" width="350.194" height="409.991" style="fill:url(#_Linear4);"/>
                </g>
            </g>
            <path d="M795,619.886C797.761,619.886 800,622.033 800,624.682C800,627.612 800,631.345 800,634.274C800,636.923 797.761,639.07 795,639.07C740.592,639.07 259.408,639.07 205,639.07C202.239,639.07 200,636.923 200,634.274C200,631.345 200,627.612 200,624.682C200,622.033 202.239,619.886 205,619.886C259.408,619.886 740.592,619.886 795,619.886Z" style="fill:none;stroke:black;stroke-width:4.08px;"/>
        </g>
        <g transform="matrix(1,0,0,1.04256,-5.68434e-14,13.7284)">
            <path d="M795,619.886C797.761,619.886 800,622.033 800,624.682C800,627.612 800,631.345 800,634.274C800,636.923 797.761,639.07 795,639.07C740.592,639.07 259.408,639.07 205,639.07C202.239,639.07 200,636.923 200,634.274C200,631.345 200,627.612 200,624.682C200,622.033 202.239,619.886 205,619.886C259.408,619.886 740.592,619.886 795,619.886Z" style="fill:rgb(0,124,255);"/>
            <clipPath id="_clip5">
                <path d="M795,619.886C797.761,619.886 800,622.033 800,624.682C800,627.612 800,631.345 800,634.274C800,636.923 797.761,639.07 795,639.07C740.592,639.07 259.408,639.07 205,639.07C202.239,639.07 200,636.923 200,634.274C200,631.345 200,627.612 200,624.682C200,622.033 202.239,619.886 205,619.886C259.408,619.886 740.592,619.886 795,619.886Z"/>
            </clipPath>
            <g clip-path="url(#_clip5)">
                <g transform="matrix(0.736231,-0.407709,0.476886,0.792268,-200.124,272.425)">
                    <rect x="149.806" y="371.723" width="350.194" height="409.991" style="fill:url(#_Linear6);"/>
                </g>
            </g>
            <path d="M795,619.886C797.761,619.886 800,622.033 800,624.682C800,627.612 800,631.345 800,634.274C800,636.923 797.761,639.07 795,639.07C740.592,639.07 259.408,639.07 205,639.07C202.239,639.07 200,636.923 200,634.274C200,631.345 200,627.612 200,624.682C200,622.033 202.239,619.886 205,619.886C259.408,619.886 740.592,619.886 795,619.886Z" style="fill:none;stroke:black;stroke-width:4.08px;"/>
        </g>
        <g transform="matrix(1,0,0,1.04256,-5.68434e-14,53.7284)">
            <path d="M795,619.886C797.761,619.886 800,622.033 800,624.682C800,627.612 800,631.345 800,634.274C800,636.923 797.761,639.07 795,639.07C740.592,639.07 259.408,639.07 205,639.07C202.239,639.07 200,636.923 200,634.274C200,631.345 200,627.612 200,624.682C200,622.033 202.239,619.886 205,619.886C259.408,619.886 740.592,619.886 795,619.886Z" style="fill:rgb(0,124,255);"/>
            <clipPath id="_clip7">
                <path d="M795,619.886C797.761,619.886 800,622.033 800,624.682C800,627.612 800,631.345 800,634.274C800,636.923 797.761,639.07 795,639.07C740.592,639.07 259.408,639.07 205,639.07C202.239,639.07 200,636.923 200,634.274C200,631.345 200,627.612 200,624.682C200,622.033 202.239,619.886 205,619.886C259.408,619.886 740.592,619.886 795,619.886Z"/>
            </clipPath>
            <g clip-path="url(#_clip7)">
                <g transform="matrix(0.736231,-0.407709,0.476886,0.792268,-200.124,234.058)">
                    <rect x="149.806" y="371.723" width="350.194" height="409.991" style="fill:url(#_Linear8);"/>
                </g>
            </g>
            <path d="M795,619.886C797.761,619.886 800,622.033 800,624.682C800,627.612 800,631.345 800,634.274C800,636.923 797.761,639.07 795,639.07C740.592,639.07 259.408,639.07 205,639.07C202.239,639.07 200,636.923 200,634.274C200,631.345 200,627.612 200,624.682C200,622.033 202.239,619.886 205,619.886C259.408,619.886 740.592,619.886 795,619.886Z" style="fill:none;stroke:black;stroke-width:4.08px;"/>
        </g>
    </g>
    <defs>
        <linearGradient id="_Linear2" x1="0" y1="0" x2="1" y2="0" gradientUnits="userSpaceOnUse" gradientTransform="matrix(-8.18733,-405.032,454.412,-7.29762,329.761,778.203)"><stop offset="0" style="stop-color:black;stop-opacity:1"/><stop offset="0.5" style="stop-color:rgb(19,19,19);stop-opacity:1"/><stop offset="1" style="stop-color:rgb(77,77,77);stop-opacity:1"/></linearGradient>
        <linearGradient id="_Linear4" x1="0" y1="0" x2="1" y2="0" gradientUnits="userSpaceOnUse" gradientTransform="matrix(-8.18733,-405.032,454.412,-7.29762,329.761,778.203)"><stop offset="0" style="stop-color:black;stop-opacity:1"/><stop offset="0.5" style="stop-color:rgb(19,19,19);stop-opacity:1"/><stop offset="1" style="stop-color:rgb(77,77,77);stop-opacity:1"/></linearGradient>
        <linearGradient id="_Linear6" x1="0" y1="0" x2="1" y2="0" gradientUnits="userSpaceOnUse" gradientTransform="matrix(-8.18733,-405.032,454.412,-7.29762,329.761,778.203)"><stop offset="0" style="stop-color:black;stop-opacity:1"/><stop offset="0.5" style="stop-color:rgb(19,19,19);stop-opacity:1"/><stop offset="1" style="stop-color:rgb(77,77,77);stop-opacity:1"/></linearGradient>
        <linearGradient id="_Linear8" x1="0" y1="0" x2="1" y2="0" gradientUnits="userSpaceOnUse" gradientTransform="matrix(-8.18733,-405.032,454.412,-7.29762,329.761,778.203)"><stop offset="0" style="stop-color:black;stop-opacity:1"/><stop offset="0.5" style="stop-color:rgb(19,19,19);stop-opacity:1"/><stop offset="1" style="stop-color:rgb(77,77,77);stop-opacity:1"/></linearGradient>
    </defs>
</svg> 
