<?xml version="1.0" standalone="no"?>
<!DOCTYPE svg PUBLIC "-//W3C//DTD SVG 20010904//EN"
 "http://www.w3.org/TR/2001/REC-SVG-20010904/DTD/svg10.dtd">
<svg version="1.0" xmlns="http://www.w3.org/2000/svg"
 width="128.000000pt" height="128.000000pt" viewBox="0 0 128.000000 128.000000"
 preserveAspectRatio="xMidYMid meet">
<metadata>
Created by potrace 1.14, written by Peter Selinger 2001-2017
</metadata>
<g transform="translate(0.000000,128.000000) scale(0.100000,-0.100000)"
fill="#000000" stroke="none">
<path d="M207 1213 c-13 -12 -7 -23 34 -68 38 -41 40 -47 34 -84 -6 -36 -10
-40 -51 -51 l-45 -13 -44 43 c-56 55 -78 50 -74 -17 3 -58 22 -99 63 -136 42
-39 71 -49 137 -49 l56 0 261 -261 260 -262 -1 -56 c-1 -68 34 -136 89 -170
41 -25 144 -33 151 -12 2 7 -14 32 -37 57 -37 40 -41 48 -35 80 8 41 18 51 64
61 30 6 37 3 76 -35 49 -48 69 -48 73 0 8 111 -83 205 -199 203 l-56 -1 -261
262 -260 261 1 57 c1 75 -38 141 -102 175 -42 22 -119 31 -134 16z"/>
<path d="M956 1205 c-81 -29 -128 -101 -125 -191 l2 -55 -75 -77 c-68 -69 -86
-102 -56 -102 5 0 47 37 93 83 l83 82 -6 53 c-8 87 37 154 118 177 24 6 23 5
-7 -25 -38 -36 -39 -42 -17 -116 15 -52 17 -54 66 -69 70 -21 83 -19 113 12
21 23 25 25 25 9 0 -25 -27 -67 -58 -91 -21 -15 -43 -20 -98 -20 l-71 -1 -81
-82 c-45 -45 -82 -86 -82 -91 0 -30 35 -11 101 55 l73 74 56 -1 c117 -2 192
63 206 178 4 37 2 52 -9 61 -12 10 -22 4 -58 -32 l-44 -44 -46 10 c-44 10 -47
13 -56 55 -10 43 -10 44 33 88 24 25 41 51 38 58 -7 18 -71 19 -118 2z"/>
<path d="M391 516 c-81 -81 -84 -84 -122 -79 -81 11 -176 -52 -198 -132 -19
-68 0 -135 52 -188 55 -54 148 -68 217 -32 61 32 103 109 99 182 -3 42 -1 46
80 127 75 75 92 106 60 106 -6 0 -34 -24 -63 -52 -29 -29 -64 -63 -77 -75
l-24 -22 -33 33 -33 34 76 75 c51 51 73 81 69 91 -3 9 -9 16 -13 16 -3 0 -44
-38 -90 -84z m-72 -134 c74 -37 99 -118 62 -196 -64 -131 -262 -95 -275 50 -5
59 18 105 66 137 49 32 98 35 147 9z"/>
<path d="M210 337 c-31 -11 -37 -18 -49 -65 l-14 -52 35 -36 c33 -32 38 -34
78 -28 54 9 76 30 85 84 6 38 4 45 -26 76 -35 36 -54 40 -109 21z m80 -49 c11
-12 18 -28 15 -36 -3 -7 -5 -20 -5 -27 0 -7 -14 -18 -32 -24 -28 -10 -35 -9
-55 12 -21 20 -22 27 -12 54 10 29 23 39 56 42 7 0 22 -9 33 -21z"/>
</g>
</svg>
